<svg xmlns="http://www.w3.org/2000/svg" fill="none" viewBox="0 0 24 24" id="Guest-Height-Limit--Streamline-Guidance-Free" height="24" width="24"><desc>Guest Height Limit Streamline Icon: https://streamlinehq.com</desc><path stroke="#000000" d="m9.524 22 0 -4.5a2 2 0 0 1 2 -2l0 -6s-1.5 -1 -4 -1 -4 1 -4 1l0 6a2 2 0 0 1 2 2V22M23.936 0.5H0.064m23.872 23H0.064M18.524 3v18m0 -18c0 0.358 0.205 0.804 0.419 1.171 0.285 0.49 0.66 0.918 1.088 1.276 0.332 0.278 0.728 0.553 0.993 0.553m-2.5 -3c0 0.358 -0.206 0.804 -0.42 1.171 -0.285 0.49 -0.659 0.918 -1.087 1.276 -0.333 0.278 -0.728 0.553 -0.993 0.553m2.5 15c0 -0.358 0.205 -0.804 0.419 -1.171 0.285 -0.49 0.66 -0.918 1.088 -1.276 0.332 -0.278 0.728 -0.553 0.993 -0.553m-2.5 3c0 -0.358 -0.206 -0.804 -0.42 -1.171a4.856 4.856 0 0 0 -1.087 -1.276c-0.333 -0.278 -0.728 -0.553 -0.993 -0.553M7.374 6.5s-1.6 -1 -1.6 -2.25a1.746 1.746 0 1 1 3.495 0c0 1.25 -1.595 2.25 -1.595 2.25h-0.3Z" stroke-width="1"></path></svg>