<svg xmlns="http://www.w3.org/2000/svg" xmlns:xlink="http://www.w3.org/1999/xlink" version="1.1" id="Layer_1" x="0px" y="0px" viewBox="0 0 64 64" style="enable-background:new 0 0 64 64" xml:space="preserve" fill="#000000"><g id="SVGRepo_bgCarrier" stroke-width="0"></g><g id="SVGRepo_tracerCarrier" stroke-linecap="round" stroke-linejoin="round"></g><g id="SVGRepo_iconCarrier"><g><path style="fill:#E24B4B;" d="M53.5,28.3c0,0-5.5-3.2-7-3.7c-0.9-0.3-4.1-1.1-4.1-1.1s1.6-5.4-0.4-7.3c-2-1.9-5.7-0.5-8.1,1.1 c-0.7,0.5-1.9,2-2.6,2.6c-0.5,0.5-2,1.5-2.6,2.4c-0.5,0.7-1,2.3-1.4,3c-1.2,2.1-3.7,2.3-5.7,2.3c-0.7,0-1.5,0-2.2,0 c-2.6,0.1-5.3,1-7.3,2.6c-2.1,1.7-2.8,3.5-4.2,5.8C3.6,39.3,3.8,42.6,5,45c0.8,1.5,2.4,3,3.8,3.9c1.6,1.1,3.4,1.7,5.3,2.1 c1.1,0.3,2.3,0.5,3.5,0.7c3.1,0.5,6.5,0.7,9.6-0.2c1.7-0.5,3.5-1.1,5.2-1.6c1.7-0.4,3.5-1,5.1-1.7c1.6-0.6,2.9-1.6,4.2-2.8 c1.5-1.3,2.9-2.6,4.4-3.8c1.1-0.9,2.5-1.7,3.5-2.7C60,36.5,54.6,28.3,53.5,28.3z"></path><path style="fill:#F76D57;" d="M47.8,43.1c-1.4,1.2-2.9,1.9-4.5,2.5c-1.7,0.7-3.4,1.3-5.2,1.7c-1.7,0.5-3.5,1.1-5.2,1.6 c-3.2,0.9-6.4,0.7-9.6,0.2c-1.2-0.2-2.4-0.4-3.5-0.7c-1.9-0.4-3.7-1-5.3-2.1c-1.4-0.9-3-2.3-3.8-3.9c-1.2-2.4-1.4-5.7,0.4-7.9 c1.4-1.8,2.1-3.5,3.9-5c2-1.8,4.7-2.9,7.5-3.1c0.7,0,1.5,0,2.2,0c2,0,4.4-0.2,5.7-2.3c0.4-0.7,0.9-2.2,1.4-3c0.6-0.9,2.1-1.9,2.6-2.4 c0.7-0.6,1.9-2.1,2.6-2.6c2.4-1.6,6.1-3,8.1-1.1c2,1.9,1.1,7.3,1.1,7.3s3.2,0.8,4.1,1.1c1.6,0.5,7,3.7,7,3.7 C58.4,38.7,49.3,43.1,47.8,43.1z"></path><path style="fill:#D1403F;" d="M40.3,40.4c-0.2-0.5,0.1-0.9,0.5-1.1c1.2-0.6,2.3-1.2,3.3-2c0.5-0.4,0.7-0.9,0.6-1.5 c-0.1-0.6-0.5-1-1.1-1.2c-1.7-0.6-3.6-0.9-5.4-0.9c-1.4,0-2.9,0.3-4.2,0.9c-0.3,0.1-0.5,0.4-0.6,0.7c-0.1,0.3,0,0.6,0.2,0.8 l1.9,2.1c-0.3,0.4-0.5,0.7-0.6,1.1c-0.3,0.9-0.1,1.8,0.6,2.5c0.2,0.2,0.4,0.3,0.6,0.4c0.5,0.2,1,0.2,1.5,0 c0.5-0.2,1-0.7,1.3-1.2c0.4-0.6,0.6-1.2,0.7-1.9C40.4,40.6,40.4,40.5,40.3,40.4z"></path></g></g></svg>
